<?xml version="1.0" encoding="UTF-8"?>
<svg id="Capa_2" xmlns="http://www.w3.org/2000/svg" xmlns:xlink="http://www.w3.org/1999/xlink" viewBox="0 0 749.67 749.67">
  <defs>
    <style>
      .cls-1 {
        fill: none;
      }

      .cls-2 {
        fill: #e1dde0;
      }

      .cls-3 {
        fill: #1277b6;
      }

      .cls-4 {
        fill: #438ab7;
      }

      .cls-5 {
        fill: #bac9d0;
      }

      .cls-6 {
        fill: #666566;
      }

      .cls-7 {
        fill: #a8a5a6;
      }

      .cls-8 {
        fill: #fefefe;
      }

      .cls-9 {
        clip-path: url(#clippath);
      }

      .cls-10 {
        fill: #0277bf;
      }
    </style>
    <clipPath id="clippath">
      <circle class="cls-1" cx="374.84" cy="374.84" r="374.84"/>
    </clipPath>
  </defs>
  <g id="Capa_1-2" data-name="Capa_1">
    <g>
      <g class="cls-9">
        <path class="cls-8" d="M373.97,781.54c-150.58,0-301.16-.04-451.73.17-5.92,0-7.08-1.16-7.07-7.07.19-266.53.19-533.06,0-799.59,0-5.91,1.16-7.08,7.07-7.07,301.73.19,603.46.19,905.2,0,5.91,0,7.08,1.16,7.07,7.07-.19,266.53-.19,533.06,0,799.59,0,5.91-1.16,7.08-7.07,7.07-151.15-.21-302.31-.17-453.46-.17Z"/>
      </g>
      <path class="cls-6" d="M373.09,230.62c18.96-5.37,36.17-14.53,53.2-24.21,20.17-11.47,41.39-20.32,65.07-20.45,29.94-.16,54.86,20.16,61.61,49.2,6.41,27.58,2.27,54.91-1.72,82.21-9.95,68.07-29.69,133.36-56.68,196.51-6.21,14.53-14.42,28.11-22.84,41.51-4.82,6.75-8.83,14.05-14.04,20.54-5.48,6.72-11.46,12.87-19.02,17.32-13.45,7.91-23.21,5.61-31.08-8-9.79-16.91-15.42-35.25-17.23-54.69-.94-10.11-2.07-20.25.44-30.67,2.12,8.16,4.27,16.32,6.37,24.48,3.52,13.74,8.27,27.08,16.98,38.38,8.72,11.32,17.16,11.23,25.92-.09,11.54-14.9,18.89-32.17,26.17-49.39,29.85-70.55,45.43-144.56,53.12-220.44.87-8.54.71-17.27.14-25.85-2.53-38.14-38.92-62.47-75.3-50.75-16.31,5.26-30.59,14.56-45.74,22.13-22.89,11.42-46.26,20.88-72.69,16.55-19.72-3.23-36.01-12.96-49.97-26.97-3.07-3.08-3.95-5.93.82-7.91,25.37-10.52,51.13-15.79,77.82-4.91,3.25,1.33,8.33,1.81,8.19,6.38-.12,4.06-5.05,3.96-8.01,5.46-1.28.65-2.64,1.12-3.97,1.68-11.24,4.73-23.72,2.15-34.45,6.37,19.01,5.36,38,1.08,56.91-4.4Z"/>
      <path class="cls-3" d="M219.64,396.33c4.99,21.81,8.74,43.91,15.24,65.38,8.67,28.65,17.96,57.05,34.23,82.56,3.72,5.83,7.76,11.38,12.85,16.12,10.87,10.11,21.14,8.56,29.14-4.15,6.08-9.66,9.11-20.41,11.88-31.29,5.03-19.74,7.7-40.09,15.44-59.14,3.14-7.74,6.26-15.45,11.46-22.09,9.17-11.71,19.96-10.41,27.71,3.84-16.04-2.31-21.98,8.34-26.92,20.35-7.74,18.83-8.61,39.21-13.32,58.73-4.33,17.98-10.61,35.26-19.79,51.32-10.03,17.54-26.91,20.45-42.88,7.84-13.55-10.7-23.34-24.58-31.8-39.31-14.65-25.52-25.59-52.68-33.9-80.9-2.02-9.73-5.77-18.94-8.53-28.44-.86-2.98-2.28-5.87-.86-9.04,5.9-1.33,6.59,3.8,7.18,7,3.55,19.05,10.8,36.97,17.61,54.84,8.66,22.72,18.31,45.29,32.25,65.43,6.65,9.6,14.16,18.81,23.91,25.85,10.85,7.83,22.28,6.05,29.34-5.43,2.44-3.97,5.99-7.47,7.13-12.59-4.02-.1-5.47,2.76-7.53,4.54-8.61,7.45-17,7.98-26.83,1.97-9.41-5.75-15.6-14.15-21.12-23.43-15.41-25.91-26.88-53.73-34.24-82.62-8.12-31.88-16.75-63.94-18.56-97.13-.19-3.56-1.29-7.59,2.69-10.16,3.73,3.82,2.7,8.94,3.48,13.48,1.53,8.84,2.29,17.82,4.73,26.5Z"/>
      <path class="cls-4" d="M200.2,427.55c-.22,8.85,4.09,16.52,6.46,24.69,1.27,4.38,3.16,8.61,2.32,13.34-8.67-20.76-13.69-42.54-18.52-64.41-10.26-46.43-17.47-93.24-17.67-140.91-.05-12.44,2.52-24.55,6.09-36.44,9.09-30.31,31.22-44.99,60.87-50.36,34.38-6.23,66.83,1.86,98.62,14,8.23,3.14,16.2,6.94,24.29,10.43,2.44,1.71,2.97,3.5-.44,4.27-2.03.46-4.36.35-6.39-.77-26.91-5.29-53.93-8.26-81.42-5.55-31,3.05-54.77,21.05-62.32,47.81-2.05,7.26-2.3,14.76-2.58,22.22-1.51,40.13,2.75,79.83,9.14,119.36.59,3.66.68,7.4,1,11.11-5.86-10.69-4.39-22.91-7.14-34.25-.46-1.88.03-4-1.73-5.45-5.65-12.08-4.95-25.28-5.64-37.98-1.12-20.66-.6-41.43-.22-62.15.48-26.3,19.99-51.23,44.85-59.91,23.85-8.32,48.2-6.77,72.62-5.63,4.85.23,9.71,1.06,14.31,1.65-19.88-8.06-40.68-13.24-62.23-15.7-22.81-2.61-43.98,2.01-64.08,12.8-10.74,5.76-17.38,14.98-22.14,25.65-6.15,13.79-9.51,28.23-9.67,43.49-.35,35.52,3.36,70.62,10.04,105.45.05,5.99,1.48,11.77,2.77,17.56.27.86.45,1.74.58,2.64.16,5.35,1.59,10.45,3.08,15.54,1.35,9.24,6.22,17.82,5.16,27.51Z"/>
      <path class="cls-2" d="M373.09,230.62c-18.42,9.53-55.14,10.99-65.59,1.57,15.15-.06,29.17-1.58,43.13-3.55-8.18,6.31-18.7,2.8-27.94,6.72,14.51,1.45,28.36.08,42-3.46,2.79-.73,5.47-1.69,8.4-1.28Z"/>
      <path class="cls-5" d="M355.82,201.38c1.5-2.68,8.01,4.39,6.84-3.5,5.36,1.36,10.58,3,16.56,7.99-9.68,1.2-16.65-.99-23.39-4.48Z"/>
      <path class="cls-7" d="M457.68,575.94c3.41-7.72,8.02-14.61,14.04-20.54-3.21,7.85-7.16,15.2-14.04,20.54Z"/>
      <path class="cls-10" d="M200.2,427.55c-3.39-8.93-5.73-18.11-6.78-27.62-1.88-5.04-.36-10.83-3.41-15.61-.04-.56-.05-1.11-.04-1.67-1.25-5.76-1.6-11.69-3.43-17.33-4.81-20.68-6.72-41.75-8.8-62.82-1.42-14.34-1.5-28.64-1.63-42.99-.18-20.93,5.43-40.35,16.71-57.7,7.2-11.09,19.05-16.73,31.38-21.28,36.03-13.3,70.6-4.97,104.89,6.74,5.25,1.79,11.19,2.61,17.15,8.09-9.09.63-16.34-1.62-23.66-1.97-30.66-1.45-61.78-4.7-88.89,14.61-16.91,12.04-26.09,28.81-26.4,49.77-.3,20.42-.46,40.86.11,61.27.35,12.55,2.19,25.06,3.36,37.59.32,15.46,3.18,30.63,4.98,45.93,2.38,20.21,10.31,38.98,13.08,59.15,1.7,12.33,8.1,24.28,12.24,36.46,6.47,19.03,16.93,36.18,26.6,53.69,4.21,7.63,10.81,12.48,17.85,16.9,7.84,4.91,15.73,3.83,22.42-2.7.82-.8,1.6-1.65,2.45-2.43,2.67-2.46,5.6-7.02,9.23-4.05,3.9,3.19-.64,6.47-2.53,9.42-2,3.13-3.96,6.29-6,9.4-7.72,11.8-22.24,13.16-33.04,3.75-13.45-11.71-22.31-26.57-32.34-41.03-10.65-15.35-15.88-32.71-22.93-48.98-7.38-17.04-14.97-34.99-17.3-54.1-.49-4.05-2.08-7.71-5.27-10.48Z"/>
      <path class="cls-3" d="M190.01,384.32c6.22,4.09,2.38,10.38,3.41,15.61-2.68-4.87-3.58-10.12-3.41-15.61Z"/>
      <path class="cls-3" d="M186.54,365.32c3.36,5.34,3.63,11.29,3.43,17.33-2.33-5.54-3.62-11.29-3.43-17.33Z"/>
    </g>
  </g>
</svg>