<?xml version="1.0" standalone="no"?>
<!DOCTYPE svg PUBLIC "-//W3C//DTD SVG 20010904//EN"
 "http://www.w3.org/TR/2001/REC-SVG-20010904/DTD/svg10.dtd">
<svg version="1.0" xmlns="http://www.w3.org/2000/svg"
 width="512.000000pt" height="512.000000pt" viewBox="0 0 512.000000 512.000000"
 preserveAspectRatio="xMidYMid meet">

<g transform="translate(0.000000,512.000000) scale(0.100000,-0.100000)"
fill="currentColor" stroke="currentColor">
<path d="M1545 5025 c-285 -63 -508 -277 -570 -548 -17 -72 -16 -74 24 -393
28 -218 41 -361 41 -442 l0 -119 -64 -5 c-129 -11 -248 -94 -303 -212 -24 -52
-28 -74 -28 -146 0 -72 4 -94 28 -145 56 -121 170 -200 305 -213 l67 -7 7 -59
c18 -141 83 -311 168 -437 55 -81 177 -208 247 -256 l53 -36 0 -128 0 -127
-37 -6 c-21 -3 -183 -24 -360 -46 -188 -24 -351 -49 -390 -61 -268 -83 -482
-314 -543 -586 -10 -44 -110 -867 -110 -905 0 -10 11 -30 25 -44 l25 -24 1867
3 c1864 3 1868 3 1958 24 373 88 671 293 867 598 91 141 158 307 194 480 25
122 26 383 1 507 -98 491 -445 884 -919 1042 -291 96 -642 83 -921 -34 -39
-16 -72 -28 -74 -27 -1 2 1 30 5 63 l7 59 67 7 c135 13 249 92 305 213 24 51
28 73 28 145 0 72 -4 94 -28 145 -60 129 -189 215 -324 215 l-43 0 0 121 c0
83 13 223 41 443 40 319 41 322 24 392 -62 273 -287 489 -570 549 -96 20 -978
20 -1070 0z m1054 -160 c202 -48 366 -204 425 -404 15 -52 15 -65 -14 -295
-17 -132 -33 -242 -35 -244 -2 -2 -50 32 -107 77 -111 88 -161 115 -252 141
-59 16 -59 17 -76 71 -25 82 -54 132 -114 197 -251 270 -695 162 -806 -197
l-17 -55 -59 -16 c-88 -24 -143 -55 -254 -143 -56 -43 -103 -77 -105 -75 -2 2
-18 112 -35 244 -29 230 -29 243 -14 295 58 197 223 355 420 403 89 22 952 22
1043 1z m-368 -506 c67 -36 98 -68 137 -143 22 -43 26 -64 26 -136 1 -78 -2
-90 -33 -148 -38 -70 -70 -100 -145 -140 -43 -22 -64 -26 -136 -26 -72 0 -93
4 -136 26 -75 40 -107 70 -145 140 -31 58 -34 70 -33 148 0 100 24 160 89 225
100 100 249 121 376 54z m-612 -411 c48 -161 182 -290 348 -333 241 -63 500
87 573 333 7 23 18 42 24 42 39 -1 135 -60 256 -155 l139 -110 1 -383 0 -383
-237 3 c-282 4 -289 6 -408 118 -93 88 -147 114 -235 114 -88 0 -142 -26 -235
-114 -119 -112 -126 -114 -407 -118 l-238 -3 0 383 1 383 139 110 c121 95 217
154 256 155 6 0 16 -19 23 -42z m-579 -789 l0 -202 -55 6 c-31 3 -71 15 -91
28 -107 66 -124 219 -34 309 41 41 81 58 143 59 l37 1 0 -201z m2230 167 c59
-39 85 -89 85 -166 0 -51 -5 -73 -24 -103 -33 -54 -88 -87 -155 -94 l-56 -6 0
203 0 203 56 -6 c35 -4 70 -15 94 -31z m-1147 -298 c12 -6 55 -42 95 -79 81
-75 168 -123 251 -139 29 -5 151 -10 271 -10 l217 0 -9 -57 c-16 -108 -48
-192 -81 -215 -104 -74 -239 -218 -323 -344 -48 -73 -60 -84 -112 -107 -170
-74 -325 -93 -506 -62 -363 63 -657 363 -714 728 l-9 57 217 0 c120 0 242 5
271 10 83 16 170 64 251 139 102 95 130 107 181 79z m1795 -412 c367 -80 669
-313 836 -644 84 -168 121 -329 121 -532 0 -157 -12 -236 -56 -372 -58 -179
-154 -335 -293 -474 -171 -170 -371 -280 -606 -330 -106 -23 -352 -26 -455 -5
-494 98 -868 472 -966 966 -21 103 -18 349 5 455 50 234 160 436 330 606 196
195 416 303 711 348 61 9 302 -3 373 -18z m-1998 -762 c118 -20 282 -13 394
16 44 11 81 20 82 20 2 0 -3 -18 -11 -40 -40 -114 -59 -244 -60 -405 0 -88 3
-172 8 -187 7 -25 -4 -39 -120 -165 -69 -76 -129 -138 -133 -138 -7 0 -580
621 -580 629 0 2 30 8 67 12 50 5 72 12 90 30 22 22 23 30 23 158 l0 135 73
-25 c39 -14 115 -32 167 -40z m-252 -694 c199 -217 372 -399 385 -404 45 -17
71 2 196 139 67 74 126 135 130 135 4 0 13 -19 20 -42 20 -67 84 -199 136
-280 106 -164 237 -295 409 -409 l90 -59 -1393 0 -1393 0 6 38 c3 20 24 195
46 387 44 375 57 435 122 542 70 119 204 225 343 274 54 19 464 79 516 76 20
-2 103 -87 387 -397z"/>
<path d="M1840 2640 l0 -80 240 0 240 0 0 80 0 80 -240 0 -240 0 0 -80z"/>
<path d="M1680 2320 l0 -80 400 0 400 0 0 80 0 80 -400 0 -400 0 0 -80z"/>
<path d="M3009 2227 c-106 -30 -200 -110 -251 -215 l-33 -67 0 -185 c0 -218
11 -262 101 -421 53 -93 59 -113 108 -324 31 -132 124 -287 206 -341 99 -66
232 -27 281 81 16 35 19 69 19 298 l0 258 25 24 c32 33 78 33 110 0 l25 -24 0
-258 c0 -229 2 -262 19 -298 43 -94 153 -140 244 -102 51 22 92 62 146 142 60
89 85 156 114 294 l22 105 45 8 c25 4 65 15 89 24 l43 17 127 -127 c69 -69
129 -126 133 -126 8 0 108 100 108 109 0 3 -57 62 -126 132 l-125 126 21 64
c27 79 23 154 -12 231 -22 48 -99 138 -118 138 -4 0 -10 36 -13 81 -10 146
-91 265 -225 331 -62 31 -73 33 -167 33 -92 -1 -107 -4 -180 -35 -79 -34 -82
-35 -225 -35 -142 0 -147 1 -225 34 -92 39 -207 50 -286 28z m256 -188 l80
-34 175 0 175 0 80 33 c136 57 226 52 307 -16 35 -30 78 -114 78 -153 0 -24
-5 -27 -47 -34 -103 -15 -197 -85 -243 -180 -19 -39 -24 -67 -24 -130 -1 -99
27 -167 98 -236 l48 -47 -17 -83 c-31 -160 -67 -245 -133 -319 -34 -38 -43
-43 -59 -34 -16 10 -18 33 -23 275 -6 299 -8 309 -86 378 -93 81 -215 81 -308
0 -78 -69 -80 -79 -86 -378 -5 -242 -7 -265 -23 -275 -16 -9 -25 -4 -59 34
-71 79 -95 140 -142 360 -17 75 -39 126 -108 250 -54 95 -68 162 -68 315 0
109 4 137 21 175 27 60 54 88 114 117 67 33 141 27 250 -18z m958 -373 c103
-43 128 -177 48 -257 -65 -65 -157 -65 -222 0 -124 123 13 325 174 257z"/>
</g>
</svg>
